<svg width="845" height="845" viewBox="0 0 845 845" fill="none" xmlns="http://www.w3.org/2000/svg">
<path d="M88.0209 191.621V398.664C88.0209 414.12 93.1085 429.154 102.509 441.442L306.313 707.952C312.967 716.666 323.301 721.771 334.268 721.771H509.447C524.146 721.771 532.368 704.818 523.266 693.27L119.444 180.724C109.111 167.609 88.0209 174.915 88.0209 191.621Z" fill="#FF5252"/>
<path d="M479.625 499.765L725.45 181.657C735.713 168.349 756.979 175.619 756.979 192.414V411.849C756.979 418.803 754.919 425.598 751.064 431.372L697.019 512.457C690.488 522.245 679.486 528.125 667.726 528.125H493.568C478.939 528.125 470.683 511.331 479.625 499.765Z" fill="#FF5252"/>
</svg>
