<svg width="1208" height="1208" viewBox="0 0 1208 1208" fill="none" xmlns="http://www.w3.org/2000/svg">
<path d="M125.833 273.939V569.924C125.833 592.021 133.107 613.513 146.546 631.079L437.9 1012.08C447.413 1024.53 462.186 1031.83 477.865 1031.83H728.298C749.312 1031.83 761.065 1007.6 748.054 991.088L170.756 258.361C155.983 239.612 125.833 250.056 125.833 273.939Z" fill="#FF0000"/>
<path d="M685.666 714.456L1037.09 259.695C1051.77 240.669 1082.17 251.063 1082.17 275.072V588.774C1082.17 598.715 1079.22 608.429 1073.71 616.684L996.449 732.602C987.112 746.594 971.383 755 954.572 755H705.598C684.684 755 672.881 730.991 685.666 714.456Z" fill="#FF0000"/>
</svg>
